<svg version="1" xmlns="http://www.w3.org/2000/svg" width="682.667" height="682.667" viewBox="0 0 512.000000 512.000000"><path d="M0 256v256h512V0H0v256zm167.2-118.7c26.9 7.1 43.7 23.4 50.7 49.4l1.9 7.2-3.6.5c-10.7 1.6-41.6 4.7-42.8 4.2-.8-.3-1.4-1.6-1.4-2.8 0-3.4-4.3-11.9-7.6-15.2-9.4-9.3-29.6-12.2-44.9-6.5-14 5.2-21 18.7-15.6 30.4 3.6 8 11.1 12.3 28.4 16.5 4.5 1 15.6 3.7 24.7 5.9 31.3 7.5 44.3 14 54.3 27.1 8.3 10.9 11.7 21.8 11.7 37.5 0 27.2-11.3 46.9-33.2 58.1-28.8 14.6-78.2 13.6-106.7-2.2-8.9-5-19.7-16-24.3-24.9-3.8-7.4-7.5-20-8-27.5l-.3-4.5 17.5-1.6c9.6-1 20-2 23.1-2.3l5.7-.7.7 5.8c1.7 14 9.3 22.7 24.5 27.9 4 1.4 8.4 1.9 16.5 1.9 17.1 0 27.4-4 33.9-13.3 2.4-3.4 3.1-5.6 3.4-10.8.6-9-1.2-14.6-6.1-19-6.5-5.9-14.7-9-43.7-16.4-22.2-5.6-29.3-7.9-36.9-11.6-15.8-7.8-25.8-19.5-30.7-36-2.1-7.2-2.4-23.5-.5-31.4 4.8-20.2 20.5-36.3 42.4-43.6 13.5-4.5 20.6-5.4 39.7-5 14.7.3 19 .8 27.2 2.9zm118.3 65.4c1.4 11.3 3.2 19.5 10.5 47.8 4.3 16.5 8.6 33.6 9.6 38l1.8 8 1.8-6.5c1-3.6 6.8-22.3 12.8-41.6 6.1-19.2 11.8-38.5 12.7-42.7l1.8-7.7h34.2l1.1 6.3c.6 3.4 6.5 23.6 13.1 44.7 6.6 21.2 12.5 40.5 13.2 43l1.2 4.5 1.4-6c.8-3.3 5-20.2 9.3-37.5 8.2-32.8 11-45.9 11-51.6V198h48.9l-1.4 3.9c-.7 2.2-1.8 4.8-2.4 5.9-1.9 3.6-40.8 130.3-44.1 143.9l-1.1 4.3H402c-17.8 0-19-.1-19-1.8 0-3-7-27.3-16.8-58.7-5-16-9.9-31.7-10.8-35l-1.7-6-1.3 4c-23.7 75.2-26.7 85-28.8 94.7l-.6 2.8h-37.7l-1.2-5.7c-1.8-9.2-42.4-140.2-46.6-150.6-.7-1.6.8-1.7 23.3-1.7h24.1l.6 4.7z"/></svg>